<?xml version="1.0" standalone="no"?>
<!DOCTYPE svg PUBLIC "-//W3C//DTD SVG 20010904//EN"
 "http://www.w3.org/TR/2001/REC-SVG-20010904/DTD/svg10.dtd">
<svg version="1.0" xmlns="http://www.w3.org/2000/svg"
 width="1288.000000pt" height="844.000000pt" viewBox="0 0 1288.000000 844.000000"
 preserveAspectRatio="xMidYMid meet">

<g transform="translate(0.000000,844.000000) scale(0.100000,-0.100000)"
fill="#000000" stroke="none">
<path d="M0 4220 l0 -4220 6440 0 6440 0 0 4220 0 4220 -6440 0 -6440 0 0
-4220z m2921 806 c222 -47 332 -195 369 -496 5 -46 10 -119 10 -162 0 -77 0
-78 25 -78 l25 0 0 -195 0 -195 160 0 160 0 0 -25 0 -25 -160 0 -160 0 0 -55
0 -55 -165 0 -165 0 0 -145 0 -146 -172 1 c-95 0 -179 1 -185 0 -7 0 -13 -7
-13 -15 0 -13 -27 -15 -180 -15 -180 0 -180 0 -180 23 0 12 -1 108 -1 212 l-2
190 182 3 181 2 0 25 0 25 109 0 c106 0 110 1 113 23 3 19 10 23 63 27 49 4
57 7 41 16 -16 10 -16 14 -5 32 8 12 17 22 21 22 8 0 12 -31 9 -57 -1 -7 3
-13 9 -13 6 0 10 59 10 170 0 163 -1 170 -20 170 -19 0 -20 7 -20 93 0 181
-37 305 -101 344 -44 27 -123 43 -209 43 l-70 0 0 -235 0 -235 25 0 25 0 0
-200 0 -200 -165 0 -165 0 0 180 c0 153 -2 180 -15 180 -13 0 -15 38 -17 278
-1 152 -3 328 -4 390 l-2 112 287 0 c206 0 304 -4 352 -14z m1626 -202 c64
-47 63 -39 63 -574 0 -303 -4 -499 -10 -522 -16 -56 -53 -94 -104 -107 -27 -6
-139 -11 -280 -11 l-236 0 0 621 0 620 269 -3 c254 -3 271 -4 298 -24z m648 4
c10 -49 35 -191 35 -204 0 -11 -26 -14 -130 -14 l-130 0 0 -145 0 -145 100 0
100 0 0 -105 0 -105 -100 0 -100 0 0 -135 0 -135 125 0 c100 0 125 -3 125 -14
0 -12 -19 -118 -36 -193 l-4 -23 -235 0 -235 0 0 620 0 620 240 0 240 0 5 -22z
m652 -93 c12 -60 18 -113 14 -117 -3 -4 -72 -9 -151 -10 l-145 -3 -3 -129 c-2
-97 1 -131 10 -138 7 -4 64 -8 126 -8 112 0 114 0 143 -29 l29 -29 0 -274 c0
-312 -3 -327 -75 -363 -35 -17 -64 -20 -227 -23 l-187 -4 -6 24 c-10 42 -35
183 -35 196 0 9 33 12 133 12 90 0 137 4 145 12 17 17 17 249 0 266 -8 8 -50
12 -121 12 l-109 0 -34 34 -34 34 0 267 c0 390 -5 384 330 381 l175 -1 22
-110z m373 -505 l0 -621 -122 3 -123 3 -3 605 c-1 333 0 611 3 618 3 9 38 12
125 12 l120 0 0 -620z m626 502 c14 -79 17 -115 10 -118 -6 -2 -72 -5 -146 -6
l-135 -3 0 -380 0 -380 68 -3 67 -3 0 241 0 240 120 0 120 0 -2 -352 -3 -353
-255 0 c-238 0 -257 1 -290 20 -19 12 -44 38 -55 60 -19 38 -20 63 -23 522 -3
506 -1 540 41 589 32 37 69 42 277 41 l184 -2 22 -113z m443 81 c5 -21 31
-123 58 -228 l48 -190 5 225 5 225 128 3 127 3 0 -621 0 -621 -127 3 -128 3
-60 230 c-33 127 -63 237 -67 245 -4 8 -7 -97 -7 -233 l-1 -248 -112 3 -113 3
-3 605 c-1 333 0 611 3 618 3 8 37 12 119 12 l115 0 10 -37z m1248 14 c69 -37
68 -25 68 -587 l0 -505 -23 -42 c-40 -76 -51 -78 -347 -78 l-260 0 -3 605 c-1
333 0 611 3 618 4 11 58 13 267 10 229 -3 267 -5 295 -21z m739 -3 c15 -11 37
-33 48 -48 21 -27 21 -38 21 -539 l0 -512 -23 -38 c-43 -68 -60 -72 -297 -72
-201 0 -212 1 -246 23 -75 46 -74 36 -74 597 0 460 1 503 18 532 39 73 79 83
329 80 181 -2 199 -4 224 -23z m470 -219 l63 -240 0 243 1 242 125 0 125 0 0
-620 0 -620 -125 0 -124 0 -14 48 c-7 26 -36 134 -63 240 l-49 194 -5 -239 -5
-238 -112 -3 -113 -3 0 621 0 621 117 -3 117 -3 62 -240z m945 150 c10 -49 18
-102 18 -117 l1 -28 -150 0 -150 0 0 -135 c0 -74 1 -136 3 -136 1 -1 59 -4
129 -8 185 -9 172 15 176 -321 3 -248 1 -274 -16 -313 -33 -74 -62 -82 -287
-82 l-189 0 -18 90 c-10 50 -20 100 -23 113 -5 22 -5 22 129 22 173 0 167 -5
165 147 -1 85 -5 118 -16 128 -11 11 -40 15 -113 15 -183 0 -184 2 -188 316
-2 158 0 256 8 283 14 54 56 100 100 111 19 4 118 7 219 7 l185 -2 17 -90z
m-7975 -792 c-3 -8 -1 -23 4 -34 11 -20 -3 -28 -15 -9 -5 8 -11 8 -20 0 -10
-9 -13 -4 -12 23 1 29 4 35 25 35 16 0 22 -5 18 -15z m-426 -88 c0 -24 -2 -25
-75 -25 -73 0 -75 1 -75 25 0 24 2 25 75 25 73 0 75 -1 75 -25z m800 -171 c14
-37 13 -39 -20 -39 -16 0 -30 3 -30 7 0 18 21 58 30 58 6 0 15 -12 20 -26z
m59 4 l8 -22 6 24 c9 35 20 17 12 -19 -9 -41 -29 -39 -42 4 -12 38 2 50 16 13z
m81 -13 c0 -19 -4 -35 -10 -35 -5 0 -10 16 -10 35 0 19 5 35 10 35 6 0 10 -16
10 -35z m98 6 c4 -26 -12 -41 -45 -41 -20 0 -23 5 -23 36 0 34 1 35 33 32 25
-2 33 -8 35 -27z"/>
<path d="M2870 3875 l0 -25 -110 0 -110 0 0 -55 0 -55 110 0 110 0 0 55 0 55
240 0 240 0 0 25 0 25 -240 0 -240 0 0 -25z"/>
<path d="M4220 4230 l0 -400 70 0 70 0 -2 398 -3 397 -67 3 -68 3 0 -401z"/>
<path d="M8220 4230 l0 -401 68 3 67 3 0 395 0 395 -67 3 -68 3 0 -401z"/>
<path d="M8960 4230 l0 -400 65 0 65 0 0 400 0 400 -65 0 -65 0 0 -400z"/>
<path d="M3286 3713 c-12 -12 -6 -33 9 -33 8 0 15 6 15 14 0 17 -14 28 -24 19z"/>
</g>
</svg>
